<?xml version="1.0" standalone="no"?>
<!DOCTYPE svg PUBLIC "-//W3C//DTD SVG 20010904//EN"
 "http://www.w3.org/TR/2001/REC-SVG-20010904/DTD/svg10.dtd">
<svg version="1.0" xmlns="http://www.w3.org/2000/svg"
 width="1784.000000pt" height="1164.000000pt" viewBox="0 0 1784.000000 1164.000000"
 preserveAspectRatio="xMidYMid meet">

<g transform="translate(0.000000,1164.000000) scale(0.100000,-0.100000)"
fill="#000000" stroke="none">
<path d="M6583 11220 c-30 -12 -63 -68 -63 -106 0 -32 32 -64 64 -64 21 0 24
-52 31 -478 3 -205 9 -380 12 -388 3 -10 -2 -17 -14 -20 -23 -6 -66 -93 -54
-108 4 -6 11 -25 14 -43 6 -29 -2 -41 -101 -155 -59 -68 -143 -166 -187 -218
-44 -52 -107 -126 -141 -165 -95 -107 -635 -733 -672 -779 -19 -23 -68 -78
-110 -123 -76 -83 -112 -103 -112 -62 0 18 4 20 26 15 19 -5 25 -3 22 6 -7 19
-43 21 -58 3 -22 -27 -48 -17 -112 43 -35 33 -99 90 -143 127 -96 83 -123 106
-189 165 -28 25 -98 86 -156 135 -495 424 -651 568 -632 587 13 13 32 2 32
-18 0 -15 16 -19 24 -5 3 5 -1 14 -9 21 -8 7 -15 18 -15 25 0 10 80 75 93 75
3 0 27 13 54 29 26 16 136 80 243 142 107 62 254 147 325 189 72 42 153 89
180 105 28 15 163 94 300 175 138 80 396 231 575 335 574 333 685 398 695 408
19 18 -135 -68 -355 -198 -58 -34 -208 -122 -335 -195 -126 -73 -282 -163
-345 -200 -191 -113 -523 -306 -735 -428 -110 -63 -218 -126 -240 -140 -22
-14 -120 -72 -219 -129 -98 -57 -188 -110 -199 -118 -27 -19 -54 -19 -73 -1
-22 23 -84 9 -116 -25 -23 -24 -28 -39 -28 -77 0 -48 -1 -49 -122 -178 -190
-199 -651 -676 -879 -909 -225 -229 -404 -416 -489 -510 -29 -33 -13 -19 36
30 128 129 812 832 919 945 91 95 266 277 450 468 54 56 104 102 112 102 18 0
34 -35 26 -57 -5 -14 -1 -13 17 5 12 13 24 21 27 18 3 -2 13 -85 24 -183 10
-98 23 -216 29 -263 14 -118 14 -116 -25 -157 -19 -20 -35 -43 -35 -50 0 -21
27 -15 33 7 5 19 33 38 42 28 11 -10 -9 -48 -26 -48 -23 0 -53 -40 -39 -54 6
-6 0 -22 -17 -45 -40 -53 -284 -331 -290 -331 -3 0 -3 15 1 33 4 23 3 28 -4
17 -5 -8 -10 -23 -10 -33 0 -27 -34 -72 -141 -188 -53 -57 -161 -176 -240
-264 -115 -129 -292 -323 -409 -448 -15 -17 -20 -15 -101 24 -46 23 -169 83
-274 134 -104 51 -199 102 -209 114 -19 21 -19 22 0 49 11 15 63 50 115 78 52
28 153 83 224 122 144 79 379 206 585 317 74 40 194 104 265 143 72 38 158 85
192 104 111 59 283 161 279 165 -2 3 -45 -19 -95 -47 -51 -29 -98 -49 -105
-47 -8 3 -16 -2 -19 -12 -3 -11 -72 -53 -183 -111 -99 -51 -204 -107 -234
-125 -60 -35 -489 -268 -665 -361 -60 -31 -138 -74 -172 -95 -33 -20 -83 -45
-110 -55 -26 -10 -58 -24 -70 -32 -25 -16 -55 -10 -51 10 4 16 -51 26 -84 15
-36 -11 -78 -62 -78 -92 0 -34 10 -55 26 -55 22 0 16 -34 -13 -76 -39 -58
-126 -188 -248 -374 -248 -379 -642 -963 -714 -1060 -42 -56 -63 -75 -81 -77
-14 0 -35 -1 -46 -2 -27 -1 -84 -58 -84 -83 0 -23 26 -76 50 -103 10 -11 26
-40 36 -65 27 -71 899 -1985 1003 -2202 51 -108 60 -141 41 -153 -6 -4 -8 -11
-5 -16 4 -5 -1 -12 -9 -15 -38 -14 -9 -85 44 -109 46 -21 100 -13 107 16 3 10
12 19 20 19 10 0 11 5 4 18 -20 38 -5 46 239 117 107 31 244 72 303 91 116 36
157 40 157 13 0 -21 32 -30 85 -23 l40 6 84 -93 c46 -52 121 -134 166 -184 93
-102 251 -276 464 -510 80 -88 179 -196 221 -241 l77 -80 -7 -51 c-3 -28 -3
-60 1 -71 10 -27 48 -52 91 -58 44 -8 83 24 103 81 12 37 12 42 -8 63 -31 34
-86 55 -103 41 -25 -21 -79 23 -200 161 -65 74 -174 196 -243 270 -70 74 -162
175 -206 225 -44 49 -118 131 -165 180 -245 261 -265 285 -251 307 11 17 11
20 -1 16 -7 -3 -21 5 -31 19 l-19 24 36 -6 c39 -8 47 3 21 29 -23 23 -19 30
41 79 70 58 563 508 709 647 168 160 327 305 356 323 25 16 26 16 48 -7 20
-21 27 -23 47 -14 31 14 25 34 -10 31 -26 -2 -35 10 -16 22 30 18 251 -76 525
-225 83 -44 222 -117 309 -161 88 -44 165 -84 170 -88 6 -5 61 -30 121 -55 61
-26 118 -56 128 -68 9 -11 17 -37 17 -57 1 -74 62 -101 148 -66 28 12 33 18
22 25 -9 5 -21 3 -34 -6 -11 -8 -32 -14 -45 -14 l-25 0 20 21 c29 28 80 27
299 -4 99 -14 221 -30 270 -36 118 -13 145 -23 145 -56 0 -21 8 -30 45 -46 31
-14 56 -18 75 -14 45 10 46 25 1 25 -51 0 -91 15 -91 35 0 17 16 20 26 4 3 -6
16 -8 28 -4 48 14 56 13 66 -6 14 -25 30 -24 30 1 0 11 -4 20 -10 20 -5 0 -10
4 -10 10 0 14 69 52 228 124 79 36 159 76 177 90 54 42 527 267 565 270 19 1
52 10 72 19 40 18 83 23 73 8 -17 -28 -322 -169 -523 -241 -34 -13 -61 -25
-59 -27 6 -5 186 59 327 118 69 28 150 60 180 70 30 11 73 32 95 46 36 25 48
27 130 26 50 0 182 -10 295 -22 249 -26 690 -67 819 -77 80 -6 98 -10 118 -30
13 -13 23 -29 23 -37 0 -7 15 -20 33 -28 26 -13 40 -13 75 -5 57 14 75 39 68
91 -6 39 -4 43 75 127 66 72 183 181 269 251 8 6 23 10 35 8 11 -1 17 0 13 4
-11 11 10 45 27 45 21 0 19 -17 -6 -56 -21 -35 -33 -41 -44 -24 -7 12 -25 13
-25 3 0 -5 4 -15 10 -23 9 -14 11 -14 80 20 8 4 19 25 23 46 5 21 12 46 16 54
11 24 772 396 919 449 44 16 122 52 173 79 124 66 135 69 164 42 18 -17 30
-20 60 -14 20 3 42 15 48 25 7 11 20 19 29 19 21 0 123 -33 393 -128 593 -208
812 -284 873 -304 81 -26 84 -28 97 -81 12 -49 39 -67 102 -67 42 0 83 27 83
55 0 24 37 45 80 45 24 0 119 9 210 20 573 69 583 70 603 53 13 -12 20 -14 28
-6 6 6 18 9 26 6 8 -3 18 -1 22 4 8 13 71 34 82 28 9 -6 0 -37 -13 -46 -5 -3
-33 -5 -63 -5 -30 1 -55 -1 -55 -4 0 -29 77 -40 124 -18 39 17 58 108 23 108
-17 0 31 47 138 133 55 44 134 108 175 142 41 33 149 119 240 190 91 71 218
173 282 226 156 131 163 135 192 120 12 -7 40 -11 61 -9 108 9 103 179 -6 190
-22 2 -43 0 -45 -4 -14 -22 -45 -5 -65 35 -12 23 -59 104 -105 180 -46 77 -84
141 -84 144 0 3 -8 17 -19 31 -10 15 -37 63 -61 107 -24 44 -46 85 -50 90 -4
6 -17 27 -29 48 -20 36 -41 73 -80 140 -10 17 -73 125 -140 240 -67 114 -130
222 -140 240 -10 17 -50 87 -90 154 -39 68 -71 125 -71 127 0 3 -14 29 -32 58
-17 29 -36 62 -42 73 -43 77 -188 315 -192 315 -5 0 5 -19 122 -220 162 -281
537 -931 669 -1160 78 -135 190 -327 249 -428 97 -163 108 -186 102 -216 -4
-20 -2 -37 4 -41 16 -10 -13 -56 -72 -111 -30 -27 -211 -176 -403 -330 -562
-451 -530 -428 -556 -395 -10 12 -20 18 -23 13 -3 -5 -19 -9 -36 -10 -40 -1
-47 -7 -55 -41 -11 -52 26 -44 -430 -96 -447 -50 -469 -52 -486 -28 -8 11 -29
28 -47 37 -18 9 -36 25 -40 34 -5 13 -8 10 -12 -13 -5 -26 -10 -30 -34 -28
-34 3 -142 71 -199 127 -55 55 -191 173 -247 216 -25 19 -88 73 -141 120 -53
47 -193 167 -312 268 -120 101 -217 185 -217 188 0 2 35 45 78 96 43 51 136
165 207 253 71 88 158 196 195 240 109 132 383 469 394 485 52 76 -317 -365
-609 -728 -99 -123 -202 -251 -228 -283 -43 -53 -50 -58 -66 -46 -51 35 -231
193 -230 202 0 6 25 28 56 50 31 22 93 69 137 105 45 36 154 123 244 193 89
71 162 131 162 133 0 11 -263 -187 -428 -323 -106 -87 -169 -130 -178 -120 -2
2 -6 18 -8 35 -4 36 16 58 109 119 33 21 107 73 165 114 163 117 346 240 471
315 124 74 161 100 318 217 57 42 110 77 118 77 7 0 29 -6 48 -14 29 -12 34
-20 38 -53 3 -36 4 -35 5 10 2 33 6 47 16 47 22 0 66 59 66 89 0 15 -7 36 -15
47 -20 27 -20 27 28 86 45 56 189 245 467 613 264 349 271 359 292 382 15 16
28 20 52 16 23 -3 38 0 50 12 24 25 42 13 87 -60 23 -36 43 -65 45 -65 6 0
-30 68 -55 105 -13 18 -21 46 -21 71 0 62 -18 101 -56 123 -32 19 -64 19 -64
0 0 -5 -17 -12 -38 -15 -34 -5 -38 -9 -34 -30 3 -18 -1 -26 -18 -32 -21 -8
-21 -8 4 -21 56 -31 42 -60 -165 -334 -89 -116 -248 -327 -354 -467 -106 -140
-211 -275 -233 -300 -36 -40 -42 -44 -61 -32 -25 15 -31 15 -31 2 0 -5 7 -10
15 -10 8 0 15 -7 15 -15 0 -8 -9 -15 -20 -15 -11 0 -20 5 -20 10 0 6 -5 10
-11 10 -23 0 -87 60 -212 200 -71 80 -216 235 -321 345 -105 110 -218 229
-251 265 -33 36 -147 156 -253 267 -180 188 -192 203 -183 226 9 22 18 26 58
30 l48 3 -46 2 c-45 2 -47 3 -53 37 -5 22 -13 35 -23 35 -26 0 -18 26 161 490
166 428 180 462 204 471 71 27 112 4 600 -344 510 -363 1050 -744 1085 -766
91 -56 -79 66 -672 484 -164 116 -405 287 -537 381 -131 94 -275 193 -319 220
-96 58 -93 56 -77 61 16 6 15 71 -1 102 -6 14 -26 33 -43 43 -45 26 -89 15
-120 -31 -24 -35 -33 -101 -14 -101 5 0 16 -11 25 -23 14 -23 11 -34 -51 -198
-36 -96 -90 -237 -119 -314 -81 -213 -155 -397 -173 -427 -11 -19 -23 -26 -42
-26 -15 1 -32 -2 -38 -6 -13 -8 -6 -33 11 -39 7 -2 2 -2 -10 0 -13 2 -23 -1
-23 -6 0 -26 -104 -31 -921 -46 -471 -8 -883 -15 -917 -15 -59 0 -61 1 -77 34
-9 18 -27 38 -41 45 -25 11 -26 13 -20 94 3 45 8 127 10 182 5 98 5 99 -8 50
l-14 -50 -1 80 c-1 44 -4 122 -8 173 -3 50 -2 148 2 216 l7 123 33 10 c41 13
47 8 40 -31 -11 -58 -21 -196 -15 -196 6 0 32 198 31 239 -1 14 8 117 18 230
11 113 22 256 26 316 11 201 34 325 59 325 22 0 88 58 75 65 -6 4 -8 16 -6 27
7 25 -16 69 -45 85 -65 36 -134 1 -148 -74 -6 -33 -3 -42 23 -70 l31 -33 -12
-76 c-12 -74 -115 -556 -130 -603 -5 -17 -19 -28 -46 -35 -32 -9 -41 -17 -48
-42 l-8 -30 -342 57 c-337 55 -480 79 -728 118 -69 11 -235 38 -370 60 -135
22 -305 50 -379 61 -147 23 -166 29 -168 58 -2 27 -42 72 -65 72 -15 0 -18 9
-19 58 0 31 -2 68 -4 82 -1 14 -6 185 -10 381 l-8 356 24 6 c13 3 32 20 42 36
15 26 16 37 7 70 -18 67 -75 96 -137 71z m75 -28 c13 -10 24 -28 25 -40 1 -12
5 -22 9 -22 4 0 8 -4 8 -9 0 -22 -34 -2 -46 27 -8 21 -20 32 -33 32 -24 0 -30
-8 -33 -49 -3 -36 -28 -43 -28 -7 0 23 49 86 67 86 4 0 18 -8 31 -18z m32
-102 c0 -5 -7 -10 -15 -10 -8 0 -15 5 -15 10 0 6 7 10 15 10 8 0 15 -4 15 -10z
m2394 -430 c16 -16 -1 -22 -21 -9 -31 19 -79 -1 -75 -31 3 -16 0 -20 -9 -14
-9 5 -10 2 -6 -9 3 -10 2 -17 -3 -17 -14 0 -12 22 6 65 15 37 16 37 57 31 23
-4 46 -11 51 -16z m6 -59 c0 -29 -15 -49 -28 -36 -3 3 0 10 8 15 10 7 11 10 3
10 -7 0 -13 9 -13 20 0 11 7 20 15 20 10 0 15 -10 15 -29z m-114 -468 c-8
-157 -30 -360 -38 -369 -13 -13 -57 31 -58 57 0 41 89 439 98 439 3 0 2 -57
-2 -127z m-2336 -21 c0 -8 -43 -32 -57 -32 -3 0 2 9 12 20 18 20 45 27 45 12z
m84 -7 c7 -18 -2 -18 -34 0 l-25 14 26 1 c15 0 29 -7 33 -15z m-1 -59 c7 -18
-1 -26 -25 -26 -18 0 -25 20 -11 33 11 12 31 8 36 -7z m-103 -17 c0 -6 -4 -7
-10 -4 -5 3 -10 11 -10 16 0 6 5 7 10 4 6 -3 10 -11 10 -16z m355 -19 c99 -16
403 -65 675 -109 272 -45 610 -100 750 -122 298 -48 336 -57 332 -81 -1 -10
16 -32 43 -54 l45 -38 0 -422 c0 -410 -1 -423 -20 -429 -10 -3 -29 -22 -40
-41 -12 -18 -27 -34 -33 -35 -7 -1 6 -7 28 -14 22 -8 34 -14 26 -14 -8 -1 -19
-8 -25 -16 -6 -8 -155 -95 -331 -193 -176 -98 -342 -191 -370 -207 -27 -15
-230 -128 -450 -250 -220 -123 -420 -234 -445 -249 -54 -31 -76 -33 -90 -7 -6
12 -17 17 -29 14 -31 -8 -57 13 -70 59 -7 24 -51 147 -98 273 -161 440 -244
678 -239 691 3 7 1 16 -4 19 -13 8 -13 25 0 25 6 0 10 -7 10 -15 0 -21 15 -19
31 5 16 23 -42 25 579 -20 994 -73 1247 -91 1340 -95 182 -6 -3 9 -715 60
-115 8 -392 28 -615 44 -223 17 -447 33 -497 37 -90 6 -93 7 -93 30 0 13 -4
24 -10 24 -5 0 -10 6 -10 14 0 7 -10 16 -22 19 -21 6 -21 8 -15 149 4 79 16
294 27 478 11 184 20 354 20 378 0 40 3 44 35 58 20 8 41 27 50 45 12 22 21
29 33 24 9 -3 98 -19 197 -35z m-360 -112 c-9 -141 -24 -412 -35 -663 -14
-310 -13 -302 -55 -320 -32 -13 -40 -27 -36 -62 3 -23 -93 -57 -474 -169 -88
-25 -261 -77 -385 -114 -124 -38 -240 -71 -257 -75 -57 -11 -44 17 63 141 29
32 114 131 191 219 77 88 170 197 209 241 151 178 302 354 369 430 39 44 129
150 200 235 150 178 189 219 205 219 8 0 9 -24 5 -82z m4785 -23 c-3 -5 -15
-10 -27 -10 -12 -1 -25 -4 -29 -8 -11 -11 -44 -8 -44 3 0 6 10 15 23 20 28 12
84 8 77 -5z m35 -36 c9 -28 -8 -45 -25 -25 -13 17 -7 46 9 46 5 0 13 -9 16
-21z m-114 -29 c27 -22 22 -25 -15 -10 -14 5 -26 14 -26 20 0 16 15 12 41 -10z
m-2509 -38 c-7 -2 -12 -10 -12 -18 0 -8 -7 -14 -15 -14 -19 0 -19 9 1 31 9 10
21 16 27 12 8 -5 7 -8 -1 -11z m2592 3 c11 -8 15 -15 9 -15 -19 0 -43 12 -43
21 0 13 12 11 34 -6z m-2484 -52 c0 -24 -7 -27 -34 -17 -27 10 -20 42 9 40 19
-1 25 -7 25 -23z m-138 -35 c-12 -12 -35 -1 -27 12 3 5 13 6 21 3 10 -4 12 -9
6 -15z m103 -18 c3 -5 -3 -10 -14 -10 -12 0 -21 5 -21 10 0 6 6 10 14 10 8 0
18 -4 21 -10z m-4899 -34 c20 -20 18 -23 -15 -23 -16 0 -41 -9 -56 -21 -46
-36 -52 -25 -10 18 42 43 58 48 81 26z m-79 -98 c-3 -7 -5 -2 -5 12 0 14 2 19
5 13 2 -7 2 -19 0 -25z m157 -70 c22 -17 66 -55 96 -82 31 -28 150 -132 265
-231 115 -99 270 -234 345 -300 192 -168 245 -214 321 -273 61 -47 86 -78 75
-89 -2 -2 -66 16 -142 41 -77 25 -247 77 -379 116 -395 118 -469 142 -482 152
-7 6 -13 23 -13 39 0 23 -8 33 -45 54 -35 21 -45 34 -49 58 -16 106 -56 477
-56 520 0 35 13 34 64 -5z m2484 -595 c-5 -26 -33 -28 -35 -3 -1 14 4 20 18
20 14 0 19 -6 17 -17z m-2428 -13 c-7 -4 -9 -16 -5 -29 9 -31 -9 -26 -26 7 -7
15 -15 30 -16 33 -2 3 11 4 28 1 19 -3 26 -7 19 -12z m2520 -11 c0 -11 -4 -17
-10 -14 -5 3 -10 13 -10 21 0 8 5 14 10 14 6 0 10 -9 10 -21z m-141 -76 c10
-17 12 -17 25 0 14 18 46 23 46 7 0 -5 -11 -12 -25 -16 -37 -9 -30 -22 12 -26
l38 -3 57 -154 c31 -84 69 -188 84 -230 27 -79 49 -140 152 -421 73 -201 78
-218 56 -227 -19 -7 -69 13 -349 142 -115 53 -327 150 -470 215 -143 65 -300
137 -350 160 -49 23 -130 60 -180 82 -197 87 -245 112 -245 124 0 8 10 20 23
28 19 12 287 93 917 280 102 30 188 55 192 55 4 1 12 -7 17 -16z m-2409 -17
c0 -15 -7 -26 -20 -29 -26 -7 -28 27 -2 42 23 14 22 14 22 -13z m453 -110
c543 -163 607 -183 623 -197 30 -24 15 -48 -63 -100 -77 -51 -126 -90 -68 -54
73 45 142 84 160 89 15 4 26 -4 46 -37 28 -45 29 -57 79 -547 17 -163 64 -597
91 -840 20 -177 23 -250 10 -250 -17 0 -61 -46 -61 -65 0 -24 26 -18 38 10 6
14 18 25 27 25 26 0 17 -28 -15 -47 -17 -10 -39 -32 -49 -49 -12 -19 -104 -92
-242 -191 -290 -206 -281 -201 -313 -180 -32 21 -55 22 -71 1 -19 -27 -51 -12
-165 76 -58 44 -258 196 -445 337 -187 141 -394 298 -460 348 -66 50 -151 112
-188 139 -57 41 -67 51 -61 70 4 11 7 34 5 50 -1 16 6 37 16 48 17 18 16 19
-11 9 -51 -20 -57 -16 -42 27 17 46 100 229 260 570 42 90 76 165 76 166 0 2
31 68 69 147 38 79 83 178 101 219 18 41 47 104 65 140 17 36 35 77 38 90 9
33 47 78 53 64 7 -16 64 4 82 29 7 9 18 17 23 17 6 0 182 -52 392 -114z m6461
83 c-5 -9 -34 -13 -34 -5 0 2 3 12 6 20 5 13 9 14 20 5 8 -6 11 -15 8 -20z
m-7018 -31 c-4 -24 -25 -81 -48 -128 -22 -47 -64 -137 -93 -200 -29 -63 -73
-158 -98 -210 -24 -52 -55 -117 -67 -145 -12 -27 -54 -117 -92 -200 -39 -82
-84 -179 -100 -215 -34 -74 -85 -175 -119 -238 -19 -35 -27 -42 -45 -38 -14 4
-28 -1 -39 -14 -10 -11 -28 -20 -40 -20 -12 0 -97 36 -189 80 -91 44 -170 80
-175 80 -5 0 -14 6 -20 13 -8 11 16 42 112 143 67 71 160 172 206 224 235 264
416 460 425 460 6 0 21 17 33 38 12 21 59 79 105 128 117 127 141 154 193 223
26 34 49 61 52 61 3 0 2 -19 -1 -42z m4821 -1 c-6 -20 -27 -19 -27 2 0 14 5
19 15 14 9 -3 14 -10 12 -16z m113 2 c0 -5 -9 -9 -20 -9 -22 0 -27 16 -7 23
15 5 27 -1 27 -14z m1930 -19 c0 -31 -106 -142 -548 -573 -127 -125 -238 -227
-246 -227 -7 0 -19 7 -26 15 -7 8 -18 15 -25 15 -7 0 -15 -7 -19 -15 -3 -9 0
-15 8 -15 7 0 19 -7 26 -15 11 -13 8 -15 -19 -15 -21 0 -31 5 -31 15 0 8 -6
12 -13 9 -18 -6 -53 18 -484 342 -488 367 -543 412 -536 429 3 8 8 15 12 15
64 3 465 11 1011 20 377 6 692 13 700 14 8 2 54 4 103 5 81 1 87 0 87 -19z
m122 -34 c22 -16 22 -16 1 -16 -11 0 -31 9 -44 20 l-24 19 22 -4 c13 -2 33
-11 45 -19z m-21 -30 c53 -5 55 -6 149 -103 52 -54 124 -130 160 -169 104
-113 704 -748 827 -875 62 -64 113 -120 113 -125 0 -4 -7 -15 -16 -25 -9 -10
-13 -23 -9 -28 9 -16 25 -13 25 4 0 9 9 15 21 15 34 0 -98 -122 -221 -206
-173 -116 -355 -241 -545 -374 -401 -281 -495 -339 -527 -327 -8 2 -1 10 17
18 40 18 39 17 26 33 -10 12 -16 12 -38 1 -14 -7 -31 -11 -37 -9 -6 2 -29 33
-51 69 -22 36 -131 205 -241 377 -111 172 -240 374 -287 448 -47 74 -110 173
-141 219 -30 47 -65 104 -78 127 -22 42 -22 43 -4 63 18 19 18 43 2 82 -5 12
94 116 379 399 212 211 391 387 397 391 7 4 15 6 19 4 3 -3 31 -7 60 -9z
m-2169 -46 c-4 -35 -75 -220 -357 -925 -96 -238 -150 -361 -160 -363 -21 -5
-137 29 -480 137 -154 49 -327 103 -385 121 -58 17 -122 38 -142 45 -21 8 -44
12 -53 9 -8 -3 -15 -2 -15 4 0 6 -13 13 -29 17 -16 3 -38 16 -50 29 l-21 22
22 21 c23 20 96 62 648 368 157 88 445 248 640 357 195 109 362 197 370 195
11 -2 14 -12 12 -37z m185 -17 c37 -25 203 -148 368 -273 165 -124 354 -265
420 -312 135 -97 191 -150 180 -168 -12 -19 -140 -75 -495 -218 -179 -71 -443
-178 -587 -236 -145 -58 -267 -106 -273 -106 -5 0 -10 7 -10 15 0 9 -7 18 -16
22 -9 3 -13 12 -9 22 4 9 22 84 40 166 55 250 112 503 145 640 17 72 47 199
66 284 33 149 59 209 91 210 6 1 42 -20 80 -46z m4294 7 c22 -32 33 -80 19
-80 -6 0 -20 20 -31 45 -11 25 -26 45 -34 45 -8 0 -17 5 -20 11 -15 23 49 3
66 -21z m-61 -19 c0 -12 -28 -22 -34 -12 -3 5 -3 11 1 15 9 9 33 7 33 -3z
m-4405 -68 c-6 -17 -15 -53 -55 -228 -9 -44 -28 -123 -40 -175 -12 -52 -30
-131 -40 -175 -121 -547 -148 -636 -186 -621 -7 3 -20 -4 -30 -16 -19 -20 -18
-20 29 -16 38 4 45 2 36 -9 -13 -15 -75 -18 -83 -4 -3 5 -31 12 -61 16 -31 3
-58 12 -61 19 -3 7 35 114 85 237 49 123 119 301 156 394 36 94 77 195 90 225
13 30 47 114 75 185 29 72 57 142 63 158 6 15 15 27 20 27 5 0 6 -8 2 -17z
m4451 -4 c10 -17 -17 -29 -39 -17 -16 8 -17 12 -6 19 19 12 36 11 45 -2z
m-8026 -43 c0 -3 -4 -8 -10 -11 -5 -3 -10 -1 -10 4 0 6 5 11 10 11 6 0 10 -2
10 -4z m128 -46 c23 0 220 -83 397 -166 39 -18 309 -141 600 -274 292 -133
540 -248 553 -256 17 -11 21 -21 16 -39 -6 -25 9 -35 21 -15 3 6 12 10 18 10
23 0 -51 -52 -534 -374 -734 -490 -913 -606 -935 -606 -1 0 -1 8 1 18 1 9 8
16 14 14 23 -5 10 18 -13 24 -29 7 -32 13 -35 79 -1 28 -8 106 -16 175 -71
627 -100 897 -120 1120 -15 164 -20 194 -41 245 -7 17 -6 18 8 7 21 -17 32 0
23 36 -5 22 -4 25 6 15 7 -7 24 -13 37 -13z m-3168 -515 c0 -8 7 -15 15 -15
18 0 20 -16 3 -26 -6 -4 -16 0 -23 9 -14 20 -25 22 -25 5 0 -7 -15 -25 -34
-40 -30 -24 -34 -25 -39 -9 -3 12 7 25 32 42 20 13 40 29 44 36 11 18 27 16
27 -2z m7905 -64 c17 -34 9 -46 -19 -26 -12 9 -16 20 -11 34 8 27 12 27 30 -8z
m-7945 -51 c0 -5 -5 -10 -11 -10 -5 0 -7 5 -4 10 3 6 8 10 11 10 2 0 4 -4 4
-10z m7790 -58 c-38 -80 -230 -421 -352 -627 -52 -88 -121 -207 -153 -265
-101 -182 -125 -220 -144 -220 -17 0 -93 59 -311 240 -43 36 -136 113 -206
171 -71 59 -143 126 -161 151 l-31 44 36 23 c44 29 1339 553 1349 546 2 -1
-11 -29 -27 -63z m-2867 13 c4 -17 -40 -17 -47 0 -5 13 0 16 19 13 14 -2 27
-7 28 -13z m2977 -12 c12 -16 42 -59 66 -98 24 -38 60 -86 79 -106 32 -34 172
-241 212 -314 9 -16 57 -93 108 -170 175 -266 328 -510 347 -554 13 -29 17
-46 10 -53 -6 -6 -39 -12 -74 -15 -63 -5 -64 -5 -89 28 -14 19 -70 122 -123
229 -54 107 -100 197 -103 200 -20 21 157 -343 193 -395 35 -53 32 -59 -28
-51 -29 3 -141 13 -248 21 -107 8 -240 19 -295 25 -55 5 -156 15 -225 20 -336
28 -468 49 -454 72 3 5 0 16 -7 24 -11 13 8 56 115 267 215 426 418 811 458
870 11 15 23 27 28 27 5 0 18 -12 30 -27z m-7750 -37 c25 -23 95 -86 155 -138
143 -124 155 -138 166 -188 8 -35 6 -45 -10 -67 -21 -26 -160 -133 -223 -171
-34 -21 -37 -21 -41 -5 -3 12 -5 8 -6 -9 -1 -27 -38 -61 -134 -123 l-28 -18 1
347 c1 262 4 346 13 343 8 -3 11 9 8 41 l-3 45 28 -7 c16 -4 49 -26 74 -50z
m-139 22 c0 -13 0 -187 0 -388 l-2 -365 -32 -28 c-109 -97 -1031 -777 -1052
-777 -8 0 5 43 14 50 24 18 272 382 671 985 175 264 330 495 345 513 31 37 55
41 56 10z m358 -73 c105 -52 206 -101 224 -109 44 -20 70 -43 63 -55 -6 -9
-63 -41 -73 -41 -2 0 -2 4 2 9 7 12 -31 25 -45 16 -5 -3 -10 -15 -10 -26 0
-19 -1 -19 -27 -2 -27 17 -209 174 -302 260 -25 24 -41 43 -34 43 6 0 97 -43
202 -95z m4773 -39 c101 -39 696 -230 871 -280 108 -31 109 -32 101 -59 -11
-39 -34 -58 -55 -46 -23 12 -25 -3 -4 -21 8 -7 15 -16 15 -21 0 -15 -22 -10
-35 8 -13 17 -14 17 -33 -1 -19 -17 -23 -17 -49 -2 -15 8 -134 65 -263 127
-307 144 -530 256 -551 274 -8 8 -23 15 -31 15 -9 0 -21 7 -28 15 -17 20 -11
19 62 -9z m-308 -2 c10 -27 7 -199 -9 -377 -13 -154 -44 -609 -61 -915 -4 -62
-10 -115 -14 -117 -10 -6 -680 215 -985 325 -262 94 -375 139 -375 149 0 4 12
19 28 33 30 29 1267 855 1357 906 28 16 52 15 59 -4z m228 -27 c40 -19 188
-91 328 -160 140 -68 280 -136 310 -150 30 -13 103 -48 163 -76 l107 -52 0
-38 c0 -35 -6 -44 -57 -88 -51 -43 -385 -306 -493 -388 -86 -65 -235 -180
-351 -270 -67 -53 -123 -94 -125 -92 -3 3 -27 552 -44 1015 -10 264 -10 285 7
313 16 27 22 30 50 26 18 -3 65 -21 105 -40z m-4256 -148 c136 -58 254 -119
254 -132 0 -4 -8 -6 -17 -3 -10 3 -49 10 -88 16 -202 29 -290 49 -308 71 -14
17 -20 19 -32 9 -10 -8 -15 -9 -15 -2 0 6 9 16 20 22 11 6 27 24 35 40 9 17
19 30 24 30 5 0 62 -23 127 -51z m-226 -10 c0 -5 -10 -9 -21 -9 -18 0 -19 2
-9 15 12 15 30 12 30 -6z m4309 -514 c6 -132 13 -337 17 -455 l7 -215 -41 -28
c-43 -28 -78 -35 -84 -17 -5 16 18 412 46 802 15 191 27 360 28 375 2 37 13
-163 27 -462z m-4379 455 c0 -5 -4 -10 -10 -10 -5 0 -10 5 -10 10 0 6 5 10 10
10 6 0 10 -4 10 -10z m9704 -32 c3 -13 2 -26 -3 -31 -10 -10 -45 29 -36 42 11
19 32 12 39 -11z m-9033 -11 c-13 -13 -26 -3 -16 12 3 6 11 8 17 5 6 -4 6 -10
-1 -17z m-561 -7 c0 -5 -4 -10 -10 -10 -5 0 -10 5 -10 10 0 6 5 10 10 10 6 0
10 -4 10 -10z m235 -16 c183 -25 255 -43 255 -65 0 -19 -23 -54 -79 -119 -95
-111 -212 -242 -267 -300 -28 -30 -79 -88 -114 -128 -34 -40 -63 -72 -65 -70
-2 2 -6 148 -9 326 -5 260 -4 322 7 322 7 0 24 14 39 30 14 17 30 30 35 30 4
0 94 -12 198 -26z m400 -28 c-19 -29 -35 -34 -35 -12 0 15 40 49 48 42 2 -3
-4 -16 -13 -30z m-750 14 c4 -6 -25 -90 -63 -188 -38 -97 -84 -216 -103 -264
-18 -49 -37 -88 -41 -88 -4 0 -8 -9 -8 -19 0 -22 -27 -98 -145 -401 -45 -118
-85 -223 -89 -233 -3 -10 -10 -15 -16 -12 -16 10 -13 865 3 886 7 9 44 39 82
67 l70 51 12 -32 11 -32 -1 40 c-2 39 0 41 83 102 47 35 105 79 129 98 45 36
65 43 76 25z m5739 -25 c38 -16 38 -17 20 -34 -19 -18 -104 -51 -132 -51 -11
0 -13 9 -8 42 12 73 31 80 120 43z m3929 10 c-4 -15 -36 -12 -41 3 -3 9 3 13
19 10 13 -1 23 -7 22 -13z m-9619 -351 c1 -275 -1 -330 -14 -348 -30 -45 -143
-176 -151 -176 -5 0 -13 15 -18 33 -9 29 -10 28 -5 -13 5 -41 3 -48 -28 -80
-18 -19 -82 -90 -142 -158 -68 -77 -112 -119 -116 -112 -4 6 14 62 40 123 25
62 75 190 111 285 35 94 68 172 74 172 5 0 11 15 12 33 1 17 18 70 37 117 20
47 63 159 96 250 60 161 86 217 97 206 3 -3 6 -152 7 -332z m661 296 c3 -5 -1
-10 -9 -10 -9 0 -16 5 -16 10 0 6 4 10 9 10 6 0 13 -4 16 -10z m24 -34 c45 -2
37 3 371 -251 517 -392 716 -543 820 -621 68 -52 106 -87 110 -103 3 -13 14
-27 25 -32 24 -8 37 -3 -147 -61 -75 -23 -135 -44 -133 -47 2 -2 58 13 125 33
68 21 129 34 140 31 40 -13 38 -20 -154 -449 -37 -82 -85 -187 -107 -233 -21
-47 -39 -87 -39 -89 0 -11 -125 -262 -138 -276 -8 -10 -27 -18 -41 -18 -16 0
-33 -10 -45 -25 -14 -18 -25 -24 -40 -19 -60 17 -330 122 -761 294 -264 106
-490 195 -502 197 -23 5 -60 40 -65 62 -2 8 12 18 37 26 l40 13 -40 -4 c-34
-4 -43 -1 -58 21 -21 29 -29 -2 73 285 29 80 67 189 86 244 90 256 339 936
360 983 15 31 29 51 36 47 5 -4 27 -7 47 -8z m5128 -8 c-2 -7 -18 -12 -36 -11
-26 1 -30 -1 -20 -13 6 -8 28 -14 48 -14 20 0 41 -4 47 -8 13 -9 106 -148 129
-192 9 -18 19 -30 21 -27 8 8 -52 123 -87 169 -51 67 -52 68 -46 68 4 0 30
-19 59 -43 29 -23 82 -65 118 -92 36 -27 119 -94 185 -148 229 -188 262 -215
286 -227 13 -8 19 -15 13 -17 -15 -5 -424 205 -488 250 -16 12 -37 22 -47 22
-9 1 -93 43 -187 93 -93 51 -175 92 -181 92 -19 0 -32 37 -18 49 48 39 215 79
204 49z m-5227 -13 c0 -9 -6 -28 -14 -43 -13 -26 -165 -442 -228 -622 -16 -47
-37 -107 -48 -135 -46 -122 -210 -584 -221 -622 -7 -24 -20 -50 -31 -59 -17
-17 -18 -4 -18 439 l0 456 79 88 c223 249 361 404 405 456 48 56 76 72 76 42z
m6324 -62 c-7 -16 -14 -34 -14 -40 0 -7 -9 -22 -20 -33 -11 -11 -17 -26 -14
-34 3 -7 -26 -71 -63 -142 -38 -71 -75 -144 -82 -162 -13 -30 -67 -80 -77 -70
-5 5 94 199 190 373 22 39 86 135 90 135 3 0 -2 -12 -10 -27z m-1394 -38 c0
-5 -10 -10 -23 -10 -13 0 -22 -6 -22 -15 0 -10 7 -14 20 -11 73 13 81 9 198
-105 457 -445 627 -615 627 -628 0 -8 -4 -18 -10 -21 -16 -10 -12 -36 7 -50
14 -11 15 -17 6 -38 -19 -41 -659 -833 -707 -874 -14 -13 -26 -27 -26 -33 0
-5 -7 -10 -15 -10 -8 0 -15 4 -15 9 0 5 7 11 15 15 24 9 17 26 -11 26 -21 0
-24 -4 -19 -20 6 -18 4 -19 -22 -7 -32 14 -117 71 -206 139 -34 25 -65 44 -69
41 -5 -2 -7 0 -6 5 2 5 -169 139 -380 297 -259 194 -390 299 -406 324 -13 20
-31 42 -40 50 -19 16 -21 31 -4 31 19 0 58 -42 58 -62 0 -11 5 -16 10 -13 23
14 8 51 -37 93 l-48 44 29 22 c16 11 194 149 395 305 495 385 562 436 623 477
51 33 80 40 78 19z m191 -52 c46 -26 129 -70 184 -99 55 -29 116 -66 136 -82
19 -17 68 -86 109 -153 40 -68 90 -149 110 -179 43 -63 91 -152 86 -157 -2 -2
-66 58 -142 134 -77 77 -239 237 -361 357 -123 120 -223 220 -223 222 0 11 25
0 101 -43z m-6251 -497 l0 -424 -45 -46 -45 -46 -357 40 c-608 68 -643 75
-615 116 4 6 88 69 187 141 99 72 333 246 520 387 187 141 343 256 348 256 4
0 7 -191 7 -424z m6738 238 c52 -31 117 -65 144 -76 73 -28 182 -84 197 -102
12 -15 11 -34 -6 -90 -4 -14 -2 -16 8 -10 10 6 10 3 -1 -11 -14 -17 -17 -15
-60 35 -25 29 -69 78 -98 109 l-54 56 44 -56 c23 -31 65 -82 92 -113 54 -62
55 -56 -13 -128 -60 -65 -69 -58 -188 142 -44 74 -103 172 -131 218 -28 45
-46 82 -40 82 6 0 54 -25 106 -56z m-3261 -173 c171 -57 459 -164 773 -289
151 -60 304 -120 340 -133 61 -23 65 -27 68 -59 5 -44 16 -57 71 -84 25 -11
52 -33 60 -48 15 -25 12 -32 -51 -160 -197 -393 -301 -584 -336 -616 -20 -18
-46 -41 -57 -51 -40 -37 -55 -39 -200 -25 -77 7 -219 20 -315 29 -212 19 -220
20 -220 44 0 21 -53 71 -75 71 -15 0 -17 8 -40 175 -8 61 -41 297 -74 525 -71
494 -84 609 -70 627 6 6 8 17 4 23 -9 14 -10 14 122 -29z m-228 7 c-7 -12 -49
-70 -95 -128 -46 -58 -116 -152 -155 -210 -40 -58 -94 -133 -121 -167 -26 -35
-45 -63 -40 -63 12 0 54 54 167 215 101 144 258 350 275 360 6 4 14 -5 19 -18
10 -27 53 -305 106 -697 47 -339 86 -603 91 -611 2 -4 -2 -12 -10 -18 -11 -10
-40 18 -153 146 -76 86 -178 203 -228 258 -151 170 -269 307 -280 323 -5 8
-24 28 -42 44 -18 16 -42 46 -54 66 -12 20 -31 47 -42 59 -13 14 -17 28 -12
40 6 16 8 16 16 -4 4 -13 13 -23 18 -23 13 0 22 28 11 35 -20 12 8 38 153 141
84 59 193 137 242 174 83 62 136 98 143 99 1 1 -3 -9 -9 -21z m3995 -3 c3 -9
0 -15 -9 -15 -16 0 -27 14 -18 24 10 10 21 7 27 -9z m-6694 -447 c0 -216 3
-403 6 -415 5 -17 2 -23 -9 -23 -10 0 -13 -6 -10 -19 3 -11 1 -26 -4 -34 -13
-22 -47 -2 -243 141 -175 128 -175 128 -181 172 -3 25 -9 53 -13 62 -8 17 74
115 221 268 35 35 63 66 63 68 0 10 152 172 161 172 5 0 9 -165 9 -392z m6590
382 c0 -5 -5 -10 -11 -10 -5 0 -7 5 -4 10 3 6 8 10 11 10 2 0 4 -4 4 -10z
m473 -25 c105 -9 361 -32 567 -51 206 -19 398 -35 426 -34 28 0 61 -3 74 -8
23 -8 23 -9 -11 -33 -19 -13 -41 -24 -49 -24 -8 -1 -53 -20 -99 -43 -47 -23
-95 -42 -107 -42 -26 0 -229 47 -734 171 -134 33 -256 67 -270 75 -14 9 -17
13 -7 10 9 -3 104 -12 210 -21z m-183 -26 c352 -95 644 -166 904 -219 27 -6
51 -11 52 -13 5 -5 -324 -157 -340 -157 -17 0 -165 79 -321 171 -44 26 -136
77 -205 114 -69 37 -142 77 -162 88 -21 12 -38 24 -38 29 0 13 29 9 110 -13z
m-94 -17 c44 -32 106 -68 401 -231 112 -62 223 -121 248 -132 25 -11 45 -22
45 -24 0 -5 -297 -150 -326 -159 -14 -4 -26 -1 -34 9 -21 26 -48 37 -56 23 -4
-7 -3 -8 4 -4 6 3 16 -2 21 -13 15 -27 14 -31 -6 -31 -29 1 -88 69 -135 155
-72 129 -208 359 -224 376 -8 8 -14 25 -14 37 0 31 28 28 76 -6z m-166 -27 c0
-19 5 -35 10 -35 6 0 10 -26 10 -57 1 -35 6 -66 15 -77 17 -22 21 -156 6 -156
-17 0 -71 52 -71 68 0 13 -2 14 -8 4 -6 -9 -19 -5 -50 18 -33 24 -42 36 -42
60 0 22 -4 28 -15 24 -11 -5 -12 -11 -4 -25 10 -20 0 -26 -18 -8 -18 18 126
219 156 219 6 0 11 -16 11 -35z m163 -159 c41 -66 89 -150 107 -186 18 -36 42
-78 55 -95 23 -32 43 -81 29 -73 -140 80 -256 153 -263 166 -13 26 -21 132
-10 132 6 0 51 -42 101 -92 l90 -93 -82 93 c-45 52 -90 102 -100 112 -10 10
-23 44 -30 77 -6 32 -15 68 -20 81 -6 13 -10 33 -10 45 1 20 3 19 30 -12 16
-18 62 -88 103 -155z m1525 110 c3 -20 0 -27 -10 -24 -7 3 -14 17 -16 32 -3
20 0 27 10 24 7 -3 14 -17 16 -32z m-4628 -41 c7 -9 19 -14 26 -11 17 7 322
-88 393 -121 52 -25 54 -27 32 -37 -18 -8 -39 -4 -100 18 -42 16 -152 56 -245
89 -121 44 -163 63 -150 68 28 11 30 11 44 -6z m4490 -10 c0 -19 -44 -48 -67
-43 -26 5 -30 38 -4 38 11 0 23 5 26 10 10 16 45 12 45 -5z m227 -72 c43 -34
100 -82 128 -106 56 -50 57 -46 -22 -136 l-39 -44 -89 53 c-130 77 -125 71
-125 157 0 41 5 84 12 96 12 24 39 48 50 44 4 -1 42 -30 85 -64z m-333 38 c10
-15 -11 -58 -31 -63 -10 -3 -38 -2 -62 1 -41 6 -43 7 -26 21 20 17 85 48 102
49 6 1 14 -3 17 -8z m151 -21 c-3 -5 -10 -10 -16 -10 -5 0 -9 5 -9 10 0 6 7
10 16 10 8 0 12 -4 9 -10z m-1865 -15 c0 -8 -7 -15 -15 -15 -8 0 -15 7 -15 15
0 8 7 15 15 15 8 0 15 -7 15 -15z m-4260 -25 c-8 -5 -25 -10 -38 -10 -30 0
-24 22 9 31 29 7 50 -8 29 -21z m6035 10 c3 -5 1 -10 -4 -10 -6 0 -11 5 -11
10 0 6 2 10 4 10 3 0 8 -4 11 -10z m3849 -52 c-8 -12 -34 11 -34 30 0 13 3 12
20 -3 11 -10 17 -22 14 -27z m50 23 c20 -8 47 -73 36 -91 -4 -6 -14 -8 -23 -4
-12 4 -14 11 -7 30 8 21 6 26 -15 36 -14 6 -25 17 -25 25 0 14 6 15 34 4z
m-4038 -16 c19 -15 19 -15 0 -30 -35 -26 -356 -135 -400 -135 -11 0 -27 -6
-35 -14 -9 -7 -54 -26 -101 -41 -47 -15 -98 -34 -113 -42 -16 -8 -34 -12 -40
-10 -13 4 187 107 208 107 7 0 23 9 36 19 14 10 92 51 174 90 124 59 159 71
201 71 29 0 58 -6 70 -15z m224 -10 c0 -15 -6 -25 -14 -25 -24 0 -29 20 -10
35 25 19 24 19 24 -10z m-3854 -12 c-10 -10 -19 5 -10 18 6 11 8 11 12 0 2 -7
1 -15 -2 -18z m-6059 -26 c-26 -23 -47 -47 -47 -53 0 -15 46 -35 65 -28 10 4
15 0 15 -11 0 -10 -5 -15 -13 -12 -9 3 -13 -2 -12 -16 1 -17 7 -21 26 -19 29
5 49 20 49 38 0 20 22 17 118 -16 101 -34 537 -170 732 -229 155 -46 286 -88
315 -100 30 -12 231 -72 300 -88 63 -15 75 -25 70 -55 -3 -11 10 -32 31 -53
l35 -35 -46 -147 c-26 -82 -58 -187 -73 -235 -15 -48 -32 -88 -37 -88 -7 0 -9
-15 -7 -34 2 -20 -5 -58 -17 -90 -11 -30 -43 -131 -70 -223 -27 -92 -86 -289
-131 -438 -97 -316 -129 -427 -130 -439 0 -24 12 10 49 129 157 520 208 686
241 801 22 72 47 150 56 173 l17 42 17 -38 c9 -21 27 -68 39 -105 13 -38 25
-68 27 -68 7 0 -3 33 -43 138 -27 72 -34 102 -29 130 9 58 142 472 155 485 18
18 31 -9 31 -63 0 -46 27 -266 81 -655 16 -121 34 -251 39 -290 5 -38 19 -135
30 -215 12 -80 25 -188 29 -240 8 -92 8 -96 -15 -117 -13 -12 -26 -34 -30 -50
-13 -53 21 -40 -440 -177 -204 -61 -263 -74 -276 -61 -4 5 6 100 17 145 10 44
-13 -9 -25 -57 -6 -24 -14 -43 -18 -44 -4 0 -16 -2 -27 -4 -10 -2 -26 2 -34 8
-17 14 -103 193 -226 467 -48 107 -166 366 -262 575 -97 209 -204 443 -238
520 -35 77 -82 181 -105 230 -23 50 -60 130 -81 178 -22 49 -49 107 -60 130
-29 61 -75 174 -95 237 -9 30 -23 61 -31 68 -7 7 -13 17 -13 22 0 5 -7 16 -16
25 -15 15 -15 18 2 37 19 20 80 55 99 57 6 0 -11 -19 -38 -42z m8222 8 c17 -8
36 -23 43 -33 7 -10 25 -22 39 -25 15 -4 40 -19 56 -34 28 -26 30 -34 37 -128
4 -55 10 -126 14 -158 9 -64 6 -70 -60 -99 l-36 -17 -21 52 c-11 29 -26 76
-32 105 -6 30 -17 66 -25 80 -8 15 -14 34 -14 43 0 8 -4 19 -9 25 -11 11 -71
188 -71 209 0 16 21 11 79 -20z m-113 -28 c30 -44 66 -140 109 -285 19 -68 43
-134 51 -147 15 -24 12 -45 -6 -45 -5 0 -43 -16 -84 -35 -41 -19 -78 -35 -82
-35 -3 0 -3 109 0 243 4 133 3 256 -2 272 -11 40 -22 -126 -22 -349 0 -89 -4
-166 -8 -172 -4 -5 -119 -59 -257 -118 -137 -59 -274 -119 -303 -132 l-53 -24
12 23 c7 12 31 47 54 77 23 30 95 134 161 230 130 193 345 485 376 513 27 23
30 22 54 -16z m1644 9 c0 -16 -117 -132 -190 -190 -46 -36 -65 -42 -88 -27
-18 11 122 146 201 193 71 41 77 43 77 24z m3967 -33 c6 -17 -9 -22 -35 -12
-13 5 -21 13 -17 19 8 12 48 7 52 -7z m-9902 -106 c21 -60 38 -119 38 -132 0
-13 -21 -52 -47 -87 -86 -119 -352 -493 -360 -508 -37 -65 177 223 337 452 71
102 82 114 91 99 4 -5 31 -88 60 -183 30 -95 80 -253 111 -352 39 -123 53
-181 46 -186 -18 -10 -779 -102 -791 -95 -6 4 -5 18 5 41 8 19 10 32 5 29 -6
-3 -10 -4 -10 -2 0 7 77 190 108 257 124 270 306 670 315 695 10 28 48 88 53
82 1 -1 19 -51 39 -110z m2064 83 c11 -33 9 -35 -20 -20 -22 12 -26 50 -5 50
8 0 19 -13 25 -30z m3937 -7 c21 -49 51 -200 57 -285 5 -66 4 -68 -19 -68 -14
0 -82 31 -152 69 -70 37 -137 71 -149 75 -13 4 -23 11 -23 15 0 14 245 231
261 231 5 0 16 -17 25 -37z m97 -63 c-5 -164 -6 -185 -10 -160 -2 14 -10 54
-18 90 -18 85 -25 141 -19 152 3 5 16 8 27 6 21 -3 22 -8 20 -88z m589 -91
c112 -95 237 -202 278 -238 41 -37 113 -98 160 -136 193 -155 277 -232 266
-242 -3 -3 -20 4 -38 14 -18 11 -73 45 -123 75 -49 30 -184 117 -300 193 -302
199 -484 318 -527 344 -21 12 -38 27 -38 31 0 13 99 130 110 130 5 0 100 -77
212 -171z m-6618 104 c28 -33 45 -64 43 -74 -3 -12 1 -15 13 -12 12 3 36 -17
76 -63 196 -224 396 -450 463 -524 120 -133 143 -172 104 -184 -59 -17 -437
-61 -452 -52 -5 4 -14 21 -20 39 -29 95 -135 430 -150 477 -74 221 -76 229
-63 262 9 24 9 29 0 20 -7 -7 -15 -12 -19 -12 -7 0 -27 50 -55 138 -19 61 2
56 60 -15z m5634 -19 l-76 -77 -56 32 c-31 18 -54 37 -51 42 3 5 32 16 63 25
31 9 80 24 107 34 94 35 96 26 13 -56z m-9038 31 c162 -19 355 -42 429 -50
132 -15 171 -28 171 -60 0 -20 51 -57 71 -52 12 3 20 -1 24 -13 3 -10 13 -24
22 -32 14 -11 15 -11 6 7 -11 20 -10 52 2 63 9 9 62 -23 202 -123 137 -97 201
-150 192 -159 -3 -3 -104 28 -225 69 -121 41 -305 99 -409 129 -105 31 -248
73 -320 96 -71 22 -208 63 -302 92 -95 28 -173 55 -173 60 0 10 -27 13 310
-27z m9560 -11 c41 -25 84 -55 96 -65 11 -11 24 -19 29 -19 11 0 180 -108 455
-290 248 -165 476 -308 550 -345 47 -24 210 -133 210 -141 0 -5 -64 16 -425
142 -209 72 -492 171 -630 218 -137 48 -261 92 -274 99 -14 7 -28 25 -32 41
-5 16 -14 33 -21 37 -18 12 9 60 88 152 36 42 62 77 57 77 -5 0 -31 -28 -59
-61 -88 -110 -106 -129 -119 -129 -21 0 -25 25 -25 181 0 114 3 149 13 149 7
0 46 -21 87 -46z m-4050 1 c0 -21 -11 -45 -21 -45 -5 0 -9 16 -9 35 0 26 3 33
15 29 8 -4 15 -12 15 -19z m-4840 5 c0 -5 -10 -10 -22 -10 -19 0 -20 2 -8 10
19 13 30 13 30 0z m5058 -29 c119 -80 632 -459 632 -466 0 -2 -7 -6 -16 -9 -8
-3 -13 -2 -10 3 3 5 -2 15 -11 22 -11 9 -17 10 -20 3 -3 -9 -359 216 -373 236
-3 4 -15 12 -27 19 -32 16 -237 181 -246 197 -8 13 -2 34 9 34 3 0 31 -17 62
-39z m2324 -42 c108 -64 161 -106 152 -121 -8 -12 -92 -54 -169 -83 -48 -18
-67 -21 -70 -12 -3 11 -15 103 -29 230 -3 26 -2 47 3 47 5 0 56 -27 113 -61z
m-7292 15 c0 -31 -23 -28 -28 4 -2 15 2 22 12 22 11 0 16 -9 16 -26z m4829 12
c7 -8 21 -105 31 -218 11 -112 22 -216 26 -233 13 -63 -15 -8 -49 96 -81 247
-88 291 -52 346 18 27 28 29 44 9z m3322 -51 c38 -25 75 -45 81 -45 18 0 -69
-85 -109 -107 -32 -17 -35 -17 -47 -1 -9 12 -16 14 -23 7 -8 -8 -46 -6 -130 5
-65 8 -154 19 -198 22 -44 4 -89 10 -99 14 -19 7 -19 8 5 23 13 9 78 32 144
51 66 19 145 44 175 55 88 32 121 28 201 -24z m-8286 15 c3 -5 1 -10 -4 -10
-6 0 -11 5 -11 10 0 6 2 10 4 10 3 0 8 -4 11 -10z m5099 -52 c70 -61 146 -138
146 -149 0 -4 30 -45 68 -91 131 -162 274 -349 270 -353 -6 -6 -324 22 -356
31 -13 4 -25 17 -28 33 -3 14 -21 80 -39 146 -18 66 -43 156 -55 200 -12 44
-32 105 -45 135 -30 72 -38 100 -30 100 4 0 35 -24 69 -52z m-5044 33 c0 -5 3
-16 6 -25 9 -22 -19 -21 -39 2 -10 10 -14 22 -10 25 10 10 43 8 43 -2z m5054
-321 c19 -63 39 -140 46 -170 6 -30 14 -62 16 -71 4 -13 -2 -16 -24 -15 -30 1
-62 21 -62 37 0 5 11 2 25 -7 45 -30 39 -6 -9 39 l-48 43 -13 155 c-8 85 -14
181 -14 214 l0 60 25 -85 c13 -47 39 -137 58 -200z m-194 101 c22 -67 52 -149
66 -183 27 -65 27 -121 -1 -132 -9 -3 -15 -19 -15 -38 0 -26 -7 -38 -33 -55
-18 -13 -36 -23 -40 -23 -7 0 -57 -21 -296 -124 l-83 -36 7 27 c12 53 340 711
347 699 4 -7 25 -67 48 -135z m3635 83 c71 -36 141 -74 155 -84 l25 -20 -27 0
c-15 0 -49 4 -75 9 -26 6 -112 20 -190 32 -79 13 -143 28 -143 34 0 14 92 94
110 95 8 0 73 -29 145 -66z m-845 -5 c0 -5 -9 -9 -20 -9 -22 0 -27 16 -7 23
15 5 27 -1 27 -14z m-2388 -38 c35 -21 140 -90 235 -152 95 -63 229 -150 299
-194 209 -133 235 -155 182 -155 -54 0 -383 42 -399 51 -10 5 -31 26 -46 46
-78 104 -214 277 -275 349 -92 109 -91 114 4 55z m2648 19 c153 -22 216 -35
224 -49 5 -7 -58 -71 -128 -131 -28 -24 -28 -24 -17 -2 6 12 9 22 5 22 -3 0 0
8 7 18 13 15 12 16 -4 3 -9 -8 -15 -16 -13 -19 11 -10 -16 -43 -32 -40 -9 2
-16 -3 -15 -9 2 -7 -1 -12 -5 -10 -5 1 -115 -101 -245 -228 -219 -213 -280
-265 -294 -251 -3 3 6 35 21 71 25 62 40 117 126 440 l37 140 45 22 c26 12 49
27 53 32 9 16 74 13 235 -9z m-380 -7 c-1 -25 -34 -89 -179 -343 l-25 -45 -8
40 c-9 51 -26 267 -21 280 2 6 31 21 66 35 34 13 76 29 92 36 45 19 75 17 75
-3z m-951 -15 c-24 -46 -270 -375 -322 -430 -56 -61 -84 -75 -71 -35 13 42
380 487 402 487 1 0 -3 -10 -9 -22z m1896 -65 c99 -14 184 -27 188 -30 19 -11
-27 -40 -173 -111 -254 -122 -745 -359 -898 -434 -79 -38 -145 -68 -148 -66
-5 5 426 398 680 619 l68 61 52 -7 c28 -3 132 -18 231 -32z m363 -16 c2 -10
-3 -17 -12 -17 -18 0 -29 16 -21 31 9 14 29 6 33 -14z m-1573 1 c2 -7 11 -83
20 -169 11 -114 12 -164 5 -184 -6 -16 -14 -24 -19 -19 -10 11 -111 318 -111
336 0 8 19 21 43 30 52 21 57 21 62 6z m269 -15 c-3 -16 -12 -46 -20 -68 -7
-22 -38 -125 -68 -230 -30 -104 -63 -208 -72 -230 l-17 -40 -9 40 c-5 22 -8
83 -6 135 l3 95 90 162 c88 159 112 192 99 136z m-347 -198 c30 -88 57 -172
60 -187 4 -20 -7 -52 -37 -110 -61 -122 -61 -122 -151 -105 l-74 14 1 79 c2
86 -2 83 -14 -11 -7 -52 -10 -60 -27 -57 -11 2 -22 6 -24 8 -6 5 -3 138 5 327
l7 137 45 20 c24 11 46 20 48 20 9 0 2 -72 -16 -185 -11 -66 -19 -133 -19
-150 1 -16 8 13 15 65 23 162 46 264 62 283 9 10 26 17 40 15 20 -3 29 -21 79
-163z m1622 156 c13 -3 -26 -31 -44 -31 -29 0 -38 10 -24 27 10 11 30 12 68 4z
m-8194 -11 c3 -5 -1 -10 -9 -10 -9 0 -16 5 -16 10 0 6 4 10 9 10 6 0 13 -4 16
-10z m-103 -62 c-17 -17 -47 9 -30 29 10 12 13 12 27 -1 11 -12 12 -19 3 -28z
m6388 -20 c4 -113 -3 -415 -9 -421 -8 -8 -105 7 -371 58 -74 14 -170 32 -212
39 -43 7 -81 15 -84 19 -15 15 58 66 141 100 50 20 185 77 300 126 116 49 216
90 223 90 6 1 12 -5 12 -11z m-6300 -15 c0 -13 3 -14 12 -5 7 7 22 12 35 12
23 0 234 -80 588 -223 177 -71 363 -144 665 -262 34 -13 59 -29 65 -43 5 -12
18 -22 28 -22 10 0 15 -5 12 -10 -4 -6 -11 -8 -16 -5 -5 4 -9 -1 -9 -10 0 -27
-27 -59 -118 -140 -48 -42 -123 -112 -167 -154 -44 -42 -138 -130 -210 -196
-71 -65 -157 -144 -190 -174 -312 -291 -432 -393 -457 -389 -37 5 -56 47 -67
148 -6 52 -21 176 -35 275 -122 887 -156 1152 -150 1170 3 7 1 16 -5 20 -16 9
-13 25 4 25 8 0 15 -8 15 -17z m5140 -9 c0 -2 -9 0 -20 6 -11 6 -20 13 -20 16
0 2 9 0 20 -6 11 -6 20 -13 20 -16z m-780 -111 c-1 -18 -19 -35 -29 -28 -9 5
-9 10 0 21 12 15 29 19 29 7z m6450 -70 c-1 -19 -46 -53 -70 -53 -22 0 -8 27
23 43 37 18 47 20 47 10z m-5975 -37 c128 -15 131 -16 157 -48 91 -109 168
-213 165 -222 -2 -6 -15 -17 -29 -25 -22 -13 -29 -12 -61 5 -319 173 -472 263
-490 288 l-21 29 75 -6 c41 -4 133 -13 204 -21z m-534 -30 c-13 -14 -29 -22
-36 -20 -6 3 -67 -42 -134 -100 -68 -59 -129 -106 -136 -106 -19 0 -102 37
-109 48 -3 6 8 20 24 32 35 25 317 150 340 150 8 1 26 7 40 15 34 18 38 10 11
-19z m239 -6 c25 -27 74 -159 110 -298 6 -24 13 -51 16 -60 4 -13 2 -13 -11 3
-15 19 -195 369 -195 380 0 3 12 5 26 5 16 0 37 -11 54 -30z m-118 3 c24 -27
234 -424 242 -455 6 -25 3 -28 -18 -28 -13 0 -55 13 -92 29 -38 15 -138 55
-223 87 -84 32 -156 64 -158 71 -3 7 22 50 55 95 32 46 70 101 84 123 30 47
73 95 86 95 5 0 16 -8 24 -17z m733 -2 c50 -6 129 -13 178 -17 120 -9 119 -15
-26 -118 -88 -63 -115 -79 -126 -74 -13 4 -161 206 -161 218 0 6 10 8 23 6 12
-3 63 -10 112 -15z m1555 -11 c0 -16 -4 -30 -8 -30 -5 0 -7 -34 -4 -77 4 -66
2 -78 -13 -90 -22 -15 -91 -18 -100 -3 -7 11 41 103 81 157 13 17 24 41 24 52
0 12 5 21 10 21 6 0 10 -13 10 -30z m-3746 -25 c14 -21 14 -25 2 -25 -16 0
-46 26 -46 41 0 18 28 8 44 -16z m1816 -94 c230 -127 282 -157 284 -165 1 -9
-236 -162 -265 -171 -27 -9 -67 12 -82 42 -8 15 -24 64 -37 108 -12 44 -37
126 -54 181 l-32 102 25 -12 c14 -6 87 -44 161 -85z m-510 77 c-1 -11 -124
-185 -150 -212 -10 -10 -82 12 -78 25 4 12 211 199 221 199 4 0 7 -6 7 -12z
m5490 -39 c0 -4 -13 -3 -30 2 -31 11 -39 24 -17 32 12 5 47 -20 47 -34z
m-3795 -32 l330 -62 3 -52 c4 -61 21 -54 -193 -78 -71 -8 -146 -18 -166 -21
-33 -6 -41 -1 -160 101 -68 58 -137 117 -152 130 -27 23 -29 46 -4 45 7 -1
161 -29 342 -63z m-2155 30 c0 -2 -12 -14 -27 -28 l-26 -24 19 27 c16 23 34
36 34 25z m1626 -27 c-10 -50 -86 -200 -108 -211 -18 -10 -27 -4 -72 41 -47
47 -49 53 -33 63 10 7 60 40 110 74 51 34 96 62 101 62 5 1 6 -13 2 -29z m77
23 c4 -3 -1 -12 -11 -19 -10 -8 -12 -13 -4 -14 18 0 15 -16 -15 -63 -27 -41
-55 -97 -49 -97 2 0 20 28 41 63 21 34 49 74 63 89 31 33 36 31 147 -61 44
-37 99 -82 123 -100 24 -19 40 -37 35 -42 -14 -14 -417 -49 -435 -38 -8 5 -7
16 2 39 8 18 15 42 16 54 4 38 36 140 52 169 17 28 24 32 35 20z m-2109 -48
c154 -14 283 -25 288 -25 24 0 -16 -38 -52 -49 -22 -6 -88 -34 -146 -61 -58
-28 -113 -50 -121 -50 -9 0 -71 34 -139 75 -67 41 -135 80 -151 87 -34 14 -63
38 -63 51 0 5 21 7 53 3 28 -3 178 -17 331 -31z m-554 12 c0 -32 -272 -507
-291 -507 -14 0 -49 52 -59 89 -5 20 -32 106 -60 191 -44 135 -57 188 -47 191
1 0 81 11 177 24 208 27 280 30 280 12z m187 -20 c7 -12 215 -147 271 -176 12
-6 22 -15 22 -20 0 -8 -102 -51 -120 -51 -13 0 -200 238 -200 254 0 11 19 6
27 -7z m6625 2 c2 -6 28 -12 58 -13 75 -2 82 -26 7 -26 -43 0 -60 5 -83 25
-27 23 -28 25 -7 25 12 0 23 -5 25 -11z m-6699 -46 c14 -16 60 -73 101 -128
58 -78 72 -103 63 -112 -10 -9 -229 -113 -240 -113 -2 0 29 371 32 378 4 8 21
-2 44 -25z m-598 5 c39 -121 126 -411 131 -435 6 -30 4 -33 -19 -33 -25 0
-189 63 -477 185 -74 31 -182 76 -240 100 -168 70 -176 73 -189 88 -16 20 -4
22 199 42 91 9 244 27 340 39 209 28 249 30 255 14z m504 -168 c-10 -91 -18
-173 -18 -183 -1 -12 -33 -33 -103 -67 -108 -53 -145 -62 -134 -34 4 9 46 87
95 173 49 86 101 181 116 211 60 121 67 105 44 -100z m-1409 155 c0 -8 -7 -15
-15 -15 -26 0 -18 20 13 29 1 1 2 -6 2 -14z m5028 -11 c17 -4 32 -12 32 -19 0
-25 -31 -37 -110 -42 -74 -5 -80 -4 -80 13 0 10 -3 30 -7 43 l-6 24 69 -7 c38
-3 84 -9 102 -12z m-2535 -30 c9 -5 13 -14 9 -19 -10 -14 -117 -95 -125 -95
-21 0 2 114 26 131 10 7 65 -3 90 -17z m-309 -27 c-16 -13 -60 -48 -98 -77
l-69 -52 -33 16 c-19 8 -34 20 -34 24 0 12 219 114 230 107 5 -3 12 0 15 6 4
5 9 8 12 5 3 -3 -7 -16 -23 -29z m55 1 c-7 -12 -36 -60 -65 -105 -53 -82 -53
-82 -84 -72 -16 6 -30 17 -30 24 0 8 21 31 47 52 26 21 67 59 92 84 49 50 60
54 40 17z m2914 25 c-7 -2 -21 -2 -30 0 -10 3 -4 5 12 5 17 0 24 -2 18 -5z
m-5183 -13 c0 -5 -4 -10 -9 -10 -6 0 -13 5 -16 10 -3 6 1 10 9 10 9 0 16 -4
16 -10z m2325 -88 c-30 -125 -73 -183 -110 -152 -23 19 -18 38 30 111 25 38
45 73 45 78 0 16 44 53 48 41 2 -6 -3 -41 -13 -78z m1471 53 c15 -20 24 -38
21 -41 -8 -8 -67 13 -92 32 -20 15 -20 15 -1 30 30 21 42 17 72 -21z m-1166
10 c17 -9 30 -19 30 -23 -1 -4 -41 -61 -89 -127 -103 -141 -120 -149 -138 -65
-20 99 -20 99 63 168 42 34 83 62 91 62 8 0 27 -7 43 -15z m2620 -7 c0 -7 -71
-82 -157 -165 -140 -135 -173 -164 -173 -149 0 2 40 71 88 153 53 88 99 153
113 160 32 17 129 17 129 1z m-225 -70 c-20 -35 -55 -100 -78 -146 -23 -45
-46 -81 -51 -79 -10 3 -9 86 2 196 l7 65 50 12 c28 6 63 12 78 13 l28 1 -36
-62z m-2651 -19 c-16 -56 -34 -47 -32 16 2 56 2 56 21 36 17 -16 19 -25 11
-52z m1376 31 c33 -17 60 -34 60 -39 0 -5 -15 -14 -32 -20 -43 -14 -341 -72
-346 -67 -6 7 222 154 241 155 10 1 44 -13 77 -29z m-886 -30 c72 -28 158 -62
191 -75 33 -13 72 -27 88 -31 42 -10 33 -32 -15 -38 -24 -3 -128 -17 -233 -32
-285 -39 -336 -45 -357 -42 -15 3 -9 16 39 83 110 154 134 185 145 185 7 0 71
-23 142 -50z m1996 -50 c0 -90 -15 -200 -26 -200 -18 0 -78 42 -148 104 -44
39 -102 89 -128 110 -26 21 -46 41 -43 45 2 4 57 13 122 20 65 7 123 14 128
16 6 2 29 4 53 4 l42 1 0 -100z m-392 46 c15 -8 36 -24 47 -36 11 -13 71 -65
133 -117 61 -51 112 -98 112 -103 0 -16 -38 -12 -88 10 -59 25 -158 55 -437
131 -121 33 -227 63 -235 66 -27 10 36 22 183 34 78 6 161 15 186 19 68 11 70
11 99 -4z m-2477 -13 c16 -10 29 -22 29 -28 -1 -5 -29 -31 -63 -57 l-62 -47
-42 42 c-24 22 -43 45 -43 49 0 13 94 57 123 58 16 0 42 -8 58 -17z m403 -59
c3 -9 6 -38 6 -65 0 -49 0 -49 -32 -49 -64 0 -72 27 -28 98 21 35 44 42 54 16z
m-286 -10 c29 -20 28 -24 -12 -87 -48 -74 -58 -82 -98 -68 -36 13 -78 49 -77
65 1 18 121 106 143 106 12 0 32 -7 44 -16z m1809 -11 c-22 -22 -29 -25 -39
-14 -11 10 -9 15 6 27 11 8 29 14 40 14 19 0 18 -2 -7 -27z m229 -27 c44 -13
117 -34 164 -45 208 -50 455 -139 325 -117 -22 4 -105 13 -185 21 -80 8 -183
19 -230 24 -47 5 -130 12 -185 16 -55 3 -143 12 -195 20 -166 25 -344 36 -391
26 -49 -11 -58 -8 -37 13 9 8 60 22 114 31 54 8 142 23 195 32 l97 16 35 -27
c29 -23 38 -25 62 -16 15 6 38 19 51 29 27 21 44 19 180 -23z m-2374 -18 c19
-29 38 -58 42 -65 4 -8 -13 -26 -47 -48 l-54 -36 -134 -2 -134 -2 0 40 c0 38
3 41 49 64 74 37 220 100 232 100 6 1 27 -23 46 -51z m88 -19 c0 -4 -7 -9 -15
-13 -17 -6 -68 61 -58 77 5 9 73 -50 73 -64z m-1347 40 c12 -7 34 -12 49 -11
18 0 26 -3 22 -10 -4 -6 -2 -8 4 -4 6 3 62 -15 124 -40 62 -26 151 -62 198
-81 47 -19 93 -42 103 -50 25 -23 22 -53 -5 -52 -22 0 -543 257 -525 258 5 1
18 -4 30 -10z m1692 -30 c0 -17 -72 -85 -81 -76 -6 5 20 62 39 85 13 17 42 11
42 -9z m65 -51 c0 -13 -4 -29 -9 -36 -14 -23 -131 -43 -131 -22 0 16 93 79
118 80 16 0 22 -6 22 -22z m57 -35 c-30 -17 -37 -16 -37 5 0 27 8 31 35 18
l24 -11 -22 -12z m848 28 c-6 -4 -68 -34 -140 -66 -71 -32 -195 -91 -275 -131
-205 -103 -440 -215 -472 -224 -38 -12 -36 3 12 70 22 30 53 78 70 107 29 49
81 103 100 103 4 0 26 15 49 34 30 25 54 36 93 41 161 20 484 67 487 71 2 2
22 4 45 4 23 0 36 -4 31 -9z m-1251 -23 c20 -29 20 -38 0 -38 -17 0 -54 36
-54 52 0 17 39 7 54 -14z m-511 -30 c-3 -18 -11 -36 -17 -40 -12 -8 -156 -11
-156 -3 0 9 135 73 157 74 20 1 22 -3 16 -31z m445 10 c25 -25 13 -38 -35 -38
l-48 0 30 25 c35 28 37 29 53 13z m627 -58 c-3 -5 -10 -10 -16 -10 -5 0 -9 5
-9 10 0 6 7 10 16 10 8 0 12 -4 9 -10z m2447 -25 c6 -29 -4 -39 -32 -30 -16 5
-17 10 -8 31 14 31 34 31 40 -1z m-2560 -10 c-8 -42 -142 -242 -142 -211 0 30
41 200 51 212 11 14 43 22 74 20 14 -1 19 -7 17 -21z m2518 -37 c0 -15 -38 -8
-60 10 -36 29 -16 45 25 19 19 -12 34 -25 35 -29z m-3730 -27 c39 -18 76 -45
93 -66 l28 -35 -38 17 c-21 9 -57 30 -81 45 -24 16 -61 37 -83 48 -37 19 -48
38 -32 53 3 4 16 -1 27 -12 12 -10 50 -33 86 -50z m481 55 c-7 -8 -36 -33 -65
-55 -83 -64 -151 -54 -144 21 l3 33 80 6 c148 10 139 10 126 -5z m266 -2 c6
-18 -280 -124 -334 -124 -40 0 77 105 142 128 39 14 187 11 192 -4z m328 -26
c-3 -18 -10 -60 -15 -93 -12 -85 -21 -125 -30 -125 -15 0 -49 49 -80 118 -18
40 -31 74 -29 76 18 18 108 56 132 56 28 0 29 -2 22 -32z m-835 -3 c0 -14 -6
-28 -13 -31 -13 -4 -117 41 -117 52 0 2 29 4 65 4 63 0 65 -1 65 -25z m-117
-15 c30 -16 62 -30 71 -30 21 0 36 -31 29 -59 -4 -17 -10 -20 -27 -15 -56 17
-154 102 -142 123 9 15 7 15 69 -19z m719 -57 c39 -43 108 -150 108 -169 0
-24 -51 -14 -209 40 -73 25 -148 48 -167 52 -40 7 -51 19 -26 29 51 22 221 74
243 74 15 1 35 -10 51 -26z m49 5 c11 -21 11 -22 -4 -9 -10 7 -17 17 -17 22 0
15 9 10 21 -13z m-571 -27 c0 -14 -28 -33 -40 -26 -20 12 -10 35 15 35 14 0
25 -4 25 -9z m46 -26 c-21 -16 -32 -13 -21 4 3 6 14 11 23 11 15 -1 15 -2 -2
-15z m264 -70 c149 -51 204 -77 179 -83 -10 -1 -43 4 -75 12 -33 8 -86 17
-119 21 -131 13 -231 29 -260 41 -16 7 -28 14 -25 14 3 1 32 10 65 20 33 10
70 18 81 19 12 0 81 -19 154 -44z m-430 -39 c0 -13 -7 -26 -15 -30 -11 -4 -15
2 -15 24 0 20 5 30 15 30 9 0 15 -9 15 -24z m-2620 -404 c0 -5 -11 -14 -25
-20 -22 -10 -25 -9 -25 8 0 15 7 20 25 20 14 0 25 -4 25 -8z m43 -79 c12 -11
-14 -33 -40 -33 -21 0 -22 3 -13 20 10 19 40 27 53 13z m-868 -163 c3 -5 1
-10 -4 -10 -6 0 -11 5 -11 10 0 6 2 10 4 10 3 0 8 -4 11 -10z m-43 -65 c-4
-24 -2 -25 34 -23 46 4 59 -13 21 -26 -38 -14 -77 9 -77 44 0 15 3 30 6 33 13
12 21 -3 16 -28z m2096 -977 c8 -10 4 -13 -14 -14 -25 -2 -33 11 -11 19 6 3
13 6 13 6 1 1 6 -5 12 -11z m-60 -68 c17 -16 32 -32 32 -34 0 -5 -60 23 -77
37 -12 9 -9 27 5 27 4 0 22 -14 40 -30z"/>
<path d="M4974 8264 c-18 -14 -18 -15 4 -4 12 6 22 13 22 15 0 8 -5 6 -26 -11z"/>
<path d="M4920 8229 c-22 -18 -22 -19 -3 -10 12 6 25 16 28 21 9 15 3 12 -25
-11z"/>
<path d="M4853 8189 c-35 -22 -46 -37 -15 -20 22 13 58 40 52 41 -3 0 -20 -10
-37 -21z"/>
<path d="M4773 8139 c-35 -22 -46 -37 -15 -20 22 13 58 40 52 41 -3 0 -20 -10
-37 -21z"/>
<path d="M4687 8086 c-48 -29 -61 -43 -22 -23 31 16 74 46 65 46 -3 0 -22 -10
-43 -23z"/>
<path d="M4600 8029 c-22 -18 -22 -19 -3 -10 12 6 25 16 28 21 9 15 3 12 -25
-11z"/>
<path d="M4514 7974 c-18 -14 -18 -15 4 -4 12 6 22 13 22 15 0 8 -5 6 -26 -11z"/>
<path d="M4460 7939 c-22 -18 -22 -19 -3 -10 12 6 25 16 28 21 9 15 3 12 -25
-11z"/>
<path d="M4404 7904 c-18 -14 -18 -15 4 -4 12 6 22 13 22 15 0 8 -5 6 -26 -11z"/>
<path d="M4305 7844 c-51 -34 -69 -52 -29 -29 35 20 82 54 74 55 -3 0 -23 -12
-45 -26z"/>
<path d="M4214 7784 c-18 -14 -18 -15 4 -4 12 6 22 13 22 15 0 8 -5 6 -26 -11z"/>
<path d="M4134 7734 c-18 -14 -18 -15 4 -4 12 6 22 13 22 15 0 8 -5 6 -26 -11z"/>
<path d="M4024 7664 c-18 -14 -18 -15 4 -4 12 6 22 13 22 15 0 8 -5 6 -26 -11z"/>
<path d="M3939 7609 l-24 -20 28 17 c15 9 27 18 27 20 0 8 -8 4 -31 -17z"/>
<path d="M3847 7554 c-31 -19 -57 -38 -57 -41 0 -3 12 3 27 12 14 10 41 26 60
37 28 17 40 28 30 28 -1 0 -28 -16 -60 -36z"/>
<path d="M3638 7422 c-75 -47 -135 -88 -133 -90 2 -2 30 13 62 33 182 116 226
146 211 145 -2 0 -65 -40 -140 -88z"/>
<path d="M10201 7395 c0 -5 6 -21 14 -35 8 -14 14 -20 14 -15 0 6 -6 21 -14
35 -8 14 -14 21 -14 15z"/>
<path d="M10240 7306 c0 -8 4 -17 9 -20 5 -4 7 3 4 14 -6 23 -13 26 -13 6z"/>
<path d="M10277 7229 c4 -13 8 -18 11 -10 2 7 -1 18 -6 23 -8 8 -9 4 -5 -13z"/>
<path d="M10317 7152 c3 -12 9 -25 14 -28 14 -8 11 10 -6 32 -13 18 -14 18 -8
-4z"/>
<path d="M10344 7101 c3 -4 10 -21 16 -36 6 -15 13 -25 16 -22 6 6 -23 67 -32
67 -3 0 -3 -4 0 -9z"/>
<path d="M10401 6985 c0 -5 11 -30 24 -55 13 -25 24 -40 24 -35 0 6 -11 30
-24 55 -13 25 -24 41 -24 35z"/>
<path d="M2311 7165 c1 -19 18 -51 18 -35 0 8 -4 22 -9 30 -5 8 -9 11 -9 5z"/>
<path d="M2361 6954 c0 -11 3 -14 6 -6 3 7 2 16 -1 19 -3 4 -6 -2 -5 -13z"/>
<path d="M2371 6904 c0 -11 3 -14 6 -6 3 7 2 16 -1 19 -3 4 -6 -2 -5 -13z"/>
<path d="M2391 6824 c0 -11 3 -14 6 -6 3 7 2 16 -1 19 -3 4 -6 -2 -5 -13z"/>
<path d="M2411 6754 c0 -11 3 -14 6 -6 3 7 2 16 -1 19 -3 4 -6 -2 -5 -13z"/>
<path d="M4350 6005 c-19 -7 -28 -13 -20 -13 8 0 31 6 50 13 19 7 28 13 20 13
-8 0 -31 -6 -50 -13z"/>
<path d="M4265 5980 c-13 -5 -14 -9 -5 -9 8 0 24 4 35 9 13 5 14 9 5 9 -8 0
-24 -4 -35 -9z"/>
<path d="M4195 5960 c-13 -5 -14 -9 -5 -9 8 0 24 4 35 9 13 5 14 9 5 9 -8 0
-24 -4 -35 -9z"/>
<path d="M4105 5935 c-22 -8 -122 -37 -223 -66 -100 -29 -180 -54 -178 -56 4
-4 457 125 465 133 8 8 -24 2 -64 -11z"/>
<path d="M3478 5752 c-103 -31 -186 -58 -183 -60 4 -4 386 106 394 114 11 10
-38 -2 -211 -54z"/>
<path d="M3255 5685 c-5 -2 -30 -9 -54 -15 -23 -6 -41 -14 -38 -16 5 -6 117
25 117 32 0 5 -10 4 -25 -1z"/>
<path d="M3035 5621 c-105 -32 -132 -43 -90 -36 42 8 213 63 195 63 -8 1 -55
-12 -105 -27z"/>
<path d="M2888 5573 c7 -3 16 -2 19 1 4 3 -2 6 -13 5 -11 0 -14 -3 -6 -6z"/>
<path d="M8770 6876 c0 -2 8 -10 18 -17 15 -13 16 -12 3 4 -13 16 -21 21 -21
13z"/>
<path d="M8820 6820 c6 -11 13 -20 16 -20 2 0 0 9 -6 20 -6 11 -13 20 -16 20
-2 0 0 -9 6 -20z"/>
<path d="M2531 6244 c0 -11 3 -14 6 -6 3 7 2 16 -1 19 -3 4 -6 -2 -5 -13z"/>
<path d="M2561 6114 c0 -11 3 -14 6 -6 3 7 2 16 -1 19 -3 4 -6 -2 -5 -13z"/>
<path d="M2641 5784 c0 -11 3 -14 6 -6 3 7 2 16 -1 19 -3 4 -6 -2 -5 -13z"/>
<path d="M9270 6324 c0 -3 5 -15 12 -27 6 -12 11 -51 11 -87 l-1 -65 8 52 c4
29 11 60 14 69 7 19 -8 50 -29 58 -8 3 -15 3 -15 0z"/>
<path d="M2267 5609 c4 -13 8 -18 11 -10 2 7 -1 18 -6 23 -8 8 -9 4 -5 -13z"/>
<path d="M2296 5541 c10 -37 33 -88 33 -71 0 8 -9 33 -20 55 -10 22 -16 29
-13 16z"/>
<path d="M2330 5447 c0 -12 112 -322 122 -337 13 -20 11 -15 -58 178 -50 143
-64 176 -64 159z"/>
<path d="M2467 5070 c3 -14 14 -43 24 -65 11 -22 16 -29 13 -15 -3 14 -15 43
-25 65 -10 22 -16 29 -12 15z"/>
<path d="M2632 4610 c3 -8 15 -46 28 -83 12 -38 24 -66 26 -64 5 5 -43 148
-53 156 -3 3 -4 -1 -1 -9z"/>
<path d="M2696 4430 c3 -14 11 -32 16 -40 6 -10 7 -7 2 10 -3 14 -11 32 -16
40 -6 10 -7 7 -2 -10z"/>
<path d="M2736 4320 c4 -14 13 -38 20 -55 11 -24 13 -25 8 -5 -4 14 -13 39
-20 55 -11 24 -13 25 -8 5z"/>
<path d="M2790 4178 c0 -10 49 -148 59 -165 17 -30 12 -11 -20 78 -28 76 -39
101 -39 87z"/>
<path d="M9262 5984 c-1 -17 -4 -47 -7 -65 l-5 -34 11 34 c5 18 8 47 6 65 l-4
31 -1 -31z"/>
<path d="M9212 5660 c0 -14 2 -19 5 -12 2 6 2 18 0 25 -3 6 -5 1 -5 -13z"/>
<path d="M4370 5120 c-6 -11 -8 -20 -6 -20 3 0 10 9 16 20 6 11 8 20 6 20 -3
0 -10 -9 -16 -20z"/>
<path d="M4330 5060 c-6 -11 -8 -20 -6 -20 3 0 10 9 16 20 6 11 8 20 6 20 -3
0 -10 -9 -16 -20z"/>
<path d="M2216 5747 c3 -10 9 -15 12 -12 3 3 0 11 -7 18 -10 9 -11 8 -5 -6z"/>
<path d="M10365 5804 c-27 -25 -41 -41 -30 -36 11 6 31 22 45 37 14 15 34 31
45 35 13 6 15 9 5 9 -8 0 -37 -20 -65 -45z"/>
<path d="M10199 5623 c-13 -17 -13 -17 6 -3 11 8 22 16 24 17 2 2 0 3 -6 3 -6
0 -17 -8 -24 -17z"/>
<path d="M8780 10560 c-20 -6 -21 -8 -5 -8 11 0 34 4 50 8 27 7 27 8 5 8 -14
0 -36 -4 -50 -8z"/>
<path d="M8718 10543 c7 -3 16 -2 19 1 4 3 -2 6 -13 5 -11 0 -14 -3 -6 -6z"/>
<path d="M9200 10540 c8 -5 22 -9 30 -9 10 0 8 3 -5 9 -27 12 -43 12 -25 0z"/>
<path d="M8678 10533 c7 -3 16 -2 19 1 4 3 -2 6 -13 5 -11 0 -14 -3 -6 -6z"/>
<path d="M8588 10513 c6 -2 18 -2 25 0 6 3 1 5 -13 5 -14 0 -19 -2 -12 -5z"/>
<path d="M9318 10503 c7 -3 16 -2 19 1 4 3 -2 6 -13 5 -11 0 -14 -3 -6 -6z"/>
<path d="M8508 10493 c7 -3 16 -2 19 1 4 3 -2 6 -13 5 -11 0 -14 -3 -6 -6z"/>
<path d="M8248 10433 c7 -3 16 -2 19 1 4 3 -2 6 -13 5 -11 0 -14 -3 -6 -6z"/>
<path d="M9538 10433 c7 -3 16 -2 19 1 4 3 -2 6 -13 5 -11 0 -14 -3 -6 -6z"/>
<path d="M9635 10400 c27 -12 43 -12 25 0 -8 5 -22 9 -30 9 -10 0 -8 -3 5 -9z"/>
<path d="M10110 10240 c8 -5 20 -10 25 -10 6 0 3 5 -5 10 -8 5 -19 10 -25 10
-5 0 -3 -5 5 -10z"/>
<path d="M10230 10200 c8 -5 20 -10 25 -10 6 0 3 5 -5 10 -8 5 -19 10 -25 10
-5 0 -3 -5 5 -10z"/>
<path d="M9310 9480 c8 -5 20 -10 25 -10 6 0 3 5 -5 10 -8 5 -19 10 -25 10 -5
0 -3 -5 5 -10z"/>
<path d="M9380 9445 c14 -8 30 -14 35 -14 6 0 -1 6 -15 14 -14 8 -29 14 -35
14 -5 0 1 -6 15 -14z"/>
<path d="M9444 9416 c11 -9 24 -16 30 -16 12 0 7 5 -24 19 -24 11 -24 11 -6
-3z"/>
<path d="M8913 9345 c0 -22 2 -30 4 -17 2 12 2 30 0 40 -3 9 -5 -1 -4 -23z"/>
<path d="M9740 9270 c30 -16 60 -29 65 -29 6 0 -15 13 -45 29 -30 16 -59 29
-65 29 -5 0 15 -13 45 -29z"/>
<path d="M8893 9190 c0 -30 2 -43 4 -27 2 15 2 39 0 55 -2 15 -4 2 -4 -28z"/>
<path d="M9940 9175 c25 -13 50 -24 55 -24 6 0 -10 11 -35 24 -25 13 -49 24
-55 24 -5 0 10 -11 35 -24z"/>
<path d="M10140 9080 c41 -21 80 -39 85 -39 6 0 -24 18 -65 39 -41 21 -79 39
-85 39 -5 0 24 -18 65 -39z"/>
<path d="M10590 8865 c14 -8 30 -14 35 -14 6 0 -1 6 -15 14 -14 8 -29 14 -35
14 -5 0 1 -6 15 -14z"/>
<path d="M10670 8830 c8 -5 20 -10 25 -10 6 0 3 5 -5 10 -8 5 -19 10 -25 10
-5 0 -3 -5 5 -10z"/>
<path d="M11173 8683 c15 -2 37 -2 50 0 12 2 0 4 -28 4 -27 0 -38 -2 -22 -4z"/>
<path d="M11288 8673 c18 -2 45 -2 60 0 15 2 0 4 -33 4 -33 0 -45 -2 -27 -4z"/>
<path d="M11413 8663 c15 -2 37 -2 50 0 12 2 0 4 -28 4 -27 0 -38 -2 -22 -4z"/>
<path d="M11538 8653 c12 -2 32 -2 45 0 12 2 2 4 -23 4 -25 0 -35 -2 -22 -4z"/>
<path d="M11668 8643 c12 -2 30 -2 40 0 9 3 -1 5 -23 4 -22 0 -30 -2 -17 -4z"/>
<path d="M11778 8633 c12 -2 32 -2 45 0 12 2 2 4 -23 4 -25 0 -35 -2 -22 -4z"/>
<path d="M11888 8623 c12 -2 30 -2 40 0 9 3 -1 5 -23 4 -22 0 -30 -2 -17 -4z"/>
<path d="M12013 8613 c9 -2 23 -2 30 0 6 3 -1 5 -18 5 -16 0 -22 -2 -12 -5z"/>
<path d="M12128 8603 c6 -2 18 -2 25 0 6 3 1 5 -13 5 -14 0 -19 -2 -12 -5z"/>
<path d="M12243 8593 c9 -2 25 -2 35 0 9 3 1 5 -18 5 -19 0 -27 -2 -17 -5z"/>
<path d="M12358 8583 c7 -3 16 -2 19 1 4 3 -2 6 -13 5 -11 0 -14 -3 -6 -6z"/>
<path d="M12488 8573 c7 -3 16 -2 19 1 4 3 -2 6 -13 5 -11 0 -14 -3 -6 -6z"/>
<path d="M12628 8563 c12 -2 30 -2 40 0 9 3 -1 5 -23 4 -22 0 -30 -2 -17 -4z"/>
<path d="M3681 8544 c0 -11 3 -14 6 -6 3 7 2 16 -1 19 -3 4 -6 -2 -5 -13z"/>
<path d="M12728 8553 c12 -2 32 -2 45 0 12 2 2 4 -23 4 -25 0 -35 -2 -22 -4z"/>
<path d="M12843 8543 c9 -2 23 -2 30 0 6 3 -1 5 -18 5 -16 0 -22 -2 -12 -5z"/>
<path d="M12938 8533 c12 -2 30 -2 40 0 9 3 -1 5 -23 4 -22 0 -30 -2 -17 -4z"/>
<path d="M3671 8504 c0 -11 3 -14 6 -6 3 7 2 16 -1 19 -3 4 -6 -2 -5 -13z"/>
<path d="M3661 8464 c0 -11 3 -14 6 -6 3 7 2 16 -1 19 -3 4 -6 -2 -5 -13z"/>
<path d="M12303 6970 c0 -36 2 -50 4 -32 2 17 2 47 0 65 -2 17 -4 3 -4 -33z"/>
<path d="M12313 6850 c0 -30 2 -43 4 -27 2 15 2 39 0 55 -2 15 -4 2 -4 -28z"/>
<path d="M12323 6690 c0 -25 2 -35 4 -22 2 12 2 32 0 45 -2 12 -4 2 -4 -23z"/>
<path d="M12331 6564 c1 -32 5 -84 9 -114 6 -38 7 -22 3 55 -6 118 -14 157
-12 59z"/>
<path d="M12353 6335 c0 -33 2 -45 4 -27 2 18 2 45 0 60 -2 15 -4 0 -4 -33z"/>
<path d="M12362 6210 c0 -14 2 -19 5 -12 2 6 2 18 0 25 -3 6 -5 1 -5 -13z"/>
<path d="M12373 6100 c0 -36 2 -50 4 -32 2 17 2 47 0 65 -2 17 -4 3 -4 -33z"/>
<path d="M12383 5985 c0 -27 2 -38 4 -22 2 15 2 37 0 50 -2 12 -4 0 -4 -28z"/>
<path d="M12393 5880 c0 -25 2 -35 4 -22 2 12 2 32 0 45 -2 12 -4 2 -4 -23z"/>
<path d="M12403 5755 c0 -22 2 -30 4 -17 2 12 2 30 0 40 -3 9 -5 -1 -4 -23z"/>
<path d="M12416 5600 c2 -58 6 -114 8 -125 2 -11 7 -73 11 -137 4 -65 11 -118
15 -118 8 0 7 5 -20 290 -13 128 -18 159 -14 90z"/>
<path d="M13355 5480 c-3 -5 -2 -10 4 -10 5 0 13 5 16 10 3 6 2 10 -4 10 -5 0
-13 -4 -16 -10z"/>
<path d="M10398 5294 c-38 -20 -36 -28 2 -9 17 9 30 18 30 20 0 7 -1 6 -32
-11z"/>
<path d="M10250 5209 c-274 -160 -591 -351 -587 -355 2 -2 44 20 93 49 49 30
202 120 339 202 227 134 278 165 265 165 -3 0 -52 -28 -110 -61z"/>
<path d="M9629 4833 c-13 -16 -12 -17 4 -4 9 7 17 15 17 17 0 8 -8 3 -21 -13z"/>
<path d="M9590 4810 c-9 -6 -10 -10 -3 -10 6 0 15 5 18 10 8 12 4 12 -15 0z"/>
<path d="M9530 4775 c-115 -64 -270 -157 -270 -161 0 -3 15 3 33 14 87 53 208
122 212 122 3 0 19 9 37 20 37 22 27 27 -12 5z"/>
<path d="M9398 4093 c-52 -2 -90 -9 -95 -16 -5 -7 -20 -41 -32 -77 -13 -36
-61 -162 -107 -280 -46 -118 -158 -408 -249 -645 -140 -361 -182 -469 -242
-622 -4 -10 20 -13 100 -13 91 0 106 2 112 18 3 9 38 107 77 217 39 110 75
206 81 213 8 10 88 12 357 12 386 -1 364 3 389 -70 6 -19 41 -115 78 -212 l66
-178 103 0 c57 0 104 3 104 8 0 4 -18 52 -40 107 -50 127 -374 964 -496 1283
-98 256 -101 263 -112 260 -4 -1 -46 -4 -94 -5z m31 -274 c6 -33 68 -210 137
-393 68 -183 124 -338 124 -345 0 -7 -24 -11 -67 -11 -38 0 -166 -3 -285 -5
-124 -3 -219 -2 -222 4 -3 5 55 174 129 376 74 202 135 371 135 376 0 17 20
59 28 59 4 0 14 -27 21 -61z"/>
<path d="M10337 3868 c2 -123 4 -401 6 -618 l3 -395 27 -81 c81 -243 245 -358
528 -371 206 -10 389 48 499 157 61 62 125 188 146 290 20 98 29 545 19 943
l-7 297 -89 0 -88 0 -3 -602 -3 -603 -29 -74 c-38 -97 -114 -177 -201 -212
-53 -21 -76 -24 -190 -23 -111 0 -138 3 -188 23 -76 30 -149 102 -187 183 -57
124 -60 163 -60 763 l0 545 -92 0 -93 0 2 -222z"/>
<path d="M11990 3288 c0 -441 3 -811 6 -823 5 -20 14 -23 77 -28 123 -8 113
-40 108 331 -1 176 0 334 4 351 l7 31 93 0 c127 0 181 -13 240 -58 62 -47 116
-123 280 -397 72 -120 139 -228 150 -240 19 -23 23 -24 123 -17 l102 7 -191
305 c-215 342 -241 378 -310 423 -27 18 -49 34 -49 37 0 3 34 18 75 33 134 50
227 145 266 270 31 99 24 247 -15 330 -37 78 -111 151 -188 187 -111 52 -179
60 -494 60 l-284 0 0 -802z m575 621 c103 -19 161 -60 206 -147 29 -58 31
-164 5 -242 -26 -75 -103 -152 -177 -176 -72 -23 -397 -33 -410 -12 -9 14 -11
551 -2 574 4 11 36 14 162 14 87 0 184 -5 216 -11z"/>
<path d="M13861 4068 c-49 -134 -93 -247 -166 -433 -47 -121 -102 -263 -122
-315 -33 -90 -252 -656 -310 -803 -14 -37 -24 -69 -22 -71 2 -2 47 -5 99 -7
l94 -4 18 35 c9 19 46 121 83 226 l67 192 201 7 c209 7 513 3 523 -8 3 -3 42
-101 86 -219 44 -117 84 -217 89 -222 7 -8 199 -10 207 -2 1 2 -13 41 -32 87
-33 78 -173 440 -438 1129 -60 157 -122 317 -138 355 l-29 70 -100 3 c-98 3
-102 2 -110 -20z m145 -302 c15 -45 78 -218 140 -385 63 -167 113 -305 112
-306 -2 -2 -130 -6 -285 -10 -234 -6 -284 -5 -288 7 -6 14 36 137 168 488 46
124 87 248 92 275 6 45 8 48 21 31 7 -10 25 -55 40 -100z"/>
<path d="M5434 4048 l-19 -23 23 19 c12 11 22 21 22 23 0 8 -8 2 -26 -19z"/>
</g>
</svg>
